<?xml version="1.0" standalone="no"?>
<!DOCTYPE svg PUBLIC "-//W3C//DTD SVG 20010904//EN"
 "http://www.w3.org/TR/2001/REC-SVG-20010904/DTD/svg10.dtd">
<svg version="1.0" xmlns="http://www.w3.org/2000/svg"
 width="600.000000pt" height="600.000000pt" viewBox="0 0 600.000000 600.000000"
 preserveAspectRatio="xMidYMid meet">
<metadata>
Created by potrace 1.11, written by Peter Selinger 2001-2013
</metadata>
<g transform="translate(0.000000,600.000000) scale(0.100000,-0.100000)"
fill="#000000" stroke="none">
<path d="M2710 5937 c-18 -34 -48 -89 -65 -122 -18 -33 -61 -114 -95 -180 -35
-66 -79 -149 -98 -185 -19 -36 -55 -103 -80 -150 -75 -144 -143 -272 -180
-340 -19 -36 -57 -108 -84 -160 -69 -130 -132 -249 -185 -350 -25 -47 -67
-125 -93 -175 -26 -49 -66 -124 -88 -165 -41 -77 -83 -157 -180 -340 -30 -58
-69 -132 -87 -165 -18 -33 -61 -114 -95 -180 -34 -66 -70 -133 -80 -150 -9
-16 -50 -93 -90 -170 -40 -77 -85 -162 -100 -190 -15 -27 -53 -99 -85 -160
-32 -60 -75 -141 -95 -180 -21 -38 -61 -115 -90 -170 -29 -55 -65 -122 -80
-150 -15 -27 -55 -104 -90 -170 -34 -66 -80 -153 -102 -193 -22 -40 -38 -75
-35 -78 2 -3 24 8 48 24 24 16 152 95 284 177 132 81 256 158 275 170 19 13
73 46 120 75 47 29 101 62 120 75 29 19 714 444 995 618 44 27 338 210 653
406 315 196 580 361 590 366 30 17 95 57 147 91 28 17 277 172 555 344 278
172 521 323 540 335 72 47 125 80 136 85 23 11 134 85 134 90 0 3 -62 39 -138
80 -75 41 -164 90 -197 109 -33 18 -82 46 -110 61 -27 15 -324 180 -660 367
-335 187 -637 355 -670 373 -86 47 -125 69 -360 200 -115 64 -220 122 -231
128 -20 10 -24 6 -54 -51z"/>
<path d="M2722 2790 c-162 -104 -315 -203 -340 -220 -76 -49 -82 -52 -182
-116 -52 -33 -130 -84 -173 -111 l-78 -51 123 -68 c68 -37 137 -75 153 -84
134 -75 772 -429 815 -453 30 -16 60 -33 65 -37 6 -4 42 -25 80 -45 39 -21
329 -182 645 -358 l574 -319 31 18 c16 10 80 50 140 89 61 39 288 185 506 325
329 211 394 257 380 266 -9 6 -45 27 -81 46 -160 88 -776 429 -790 438 -8 5
-31 18 -50 28 -31 16 -72 39 -270 150 -25 13 -270 149 -545 302 -275 153 -516
286 -535 297 -133 74 -167 93 -171 92 -2 0 -136 -85 -297 -189z"/>
<path d="M1365 1905 c-132 -85 -247 -159 -255 -165 -15 -10 -103 -67 -421
-273 -83 -54 -150 -99 -148 -101 4 -4 502 -282 584 -326 28 -15 109 -60 180
-100 72 -40 148 -83 170 -95 22 -13 204 -114 405 -225 201 -112 379 -212 395
-222 17 -10 37 -21 45 -25 8 -3 49 -25 90 -48 41 -23 102 -57 135 -75 33 -18
76 -42 95 -53 19 -11 73 -41 120 -67 47 -26 114 -64 150 -85 36 -20 72 -37 80
-37 12 -1 204 119 555 347 83 53 242 156 382 245 73 47 133 88 133 92 0 5
-336 193 -1355 758 -150 83 -610 338 -645 358 -25 14 -74 41 -110 60 -36 19
-90 49 -120 67 -30 18 -93 53 -140 78 l-85 46 -240 -154z"/>
</g>
</svg>
